<?xml version="1.0" encoding="UTF-8" standalone="no"?>
<!DOCTYPE svg PUBLIC "-//W3C//DTD SVG 1.1//EN" "http://www.w3.org/Graphics/SVG/1.1/DTD/svg11.dtd">
<svg width="100%" height="100%" viewBox="0 0 42 42" version="1.1" xmlns="http://www.w3.org/2000/svg" xmlns:xlink="http://www.w3.org/1999/xlink" xml:space="preserve" xmlns:serif="http://www.serif.com/" style="fill-rule:evenodd;clip-rule:evenodd;stroke-linejoin:round;stroke-miterlimit:2;">
    <g transform="matrix(1,0,0,1,0,4)">
        <g>
            <path d="M37,17C37,8.169 29.831,1 21,1C12.169,1 5,8.169 5,17C5,25.831 12.169,33 21,33C29.831,33 37,25.831 37,17Z" style="fill:white;"/>
            <path d="M28.467,18.733C28.467,18.887 28.406,19.034 28.299,19.142C28.192,19.25 28.046,19.311 27.894,19.311L26.748,19.311L26.748,20.467C26.748,20.62 26.688,20.767 26.58,20.875C26.473,20.984 26.327,21.044 26.175,21.044C26.023,21.044 25.878,20.984 25.77,20.875C25.663,20.767 25.603,20.62 25.603,20.467L25.603,19.311L24.457,19.311C24.305,19.311 24.159,19.25 24.052,19.142C23.945,19.034 23.884,18.887 23.884,18.733C23.884,18.58 23.945,18.433 24.052,18.325C24.159,18.216 24.305,18.156 24.457,18.156L25.603,18.156L25.603,17C25.603,16.847 25.663,16.7 25.77,16.591C25.878,16.483 26.023,16.422 26.175,16.422C26.327,16.422 26.473,16.483 26.58,16.591C26.688,16.7 26.748,16.847 26.748,17L26.748,18.156L27.894,18.156C28.046,18.156 28.192,18.216 28.299,18.325C28.406,18.433 28.467,18.58 28.467,18.733ZM14.719,12.956L15.865,12.956L15.865,14.111C15.865,14.264 15.925,14.411 16.032,14.52C16.14,14.628 16.285,14.689 16.438,14.689C16.589,14.689 16.735,14.628 16.843,14.52C16.95,14.411 17.01,14.264 17.01,14.111L17.01,12.956L18.156,12.956C18.308,12.956 18.453,12.895 18.561,12.786C18.668,12.678 18.729,12.531 18.729,12.378C18.729,12.225 18.668,12.078 18.561,11.969C18.453,11.861 18.308,11.8 18.156,11.8L17.01,11.8L17.01,10.644C17.01,10.491 16.95,10.344 16.843,10.236C16.735,10.128 16.589,10.067 16.438,10.067C16.285,10.067 16.14,10.128 16.032,10.236C15.925,10.344 15.865,10.491 15.865,10.644L15.865,11.8L14.719,11.8C14.567,11.8 14.421,11.861 14.314,11.969C14.207,12.078 14.146,12.225 14.146,12.378C14.146,12.531 14.207,12.678 14.314,12.786C14.421,12.895 14.567,12.956 14.719,12.956ZM23.884,21.622L23.311,21.622L23.311,21.044C23.311,20.891 23.251,20.744 23.144,20.636C23.036,20.528 22.89,20.467 22.738,20.467C22.587,20.467 22.441,20.528 22.333,20.636C22.226,20.744 22.166,20.891 22.166,21.044L22.166,21.622L21.593,21.622C21.441,21.622 21.295,21.683 21.188,21.791C21.08,21.9 21.02,22.047 21.02,22.2C21.02,22.353 21.08,22.5 21.188,22.609C21.295,22.717 21.441,22.778 21.593,22.778L22.166,22.778L22.166,23.356C22.166,23.509 22.226,23.656 22.333,23.764C22.441,23.872 22.587,23.933 22.738,23.933C22.89,23.933 23.036,23.872 23.144,23.764C23.251,23.656 23.311,23.509 23.311,23.356L23.311,22.778L23.884,22.778C24.036,22.778 24.182,22.717 24.289,22.609C24.397,22.5 24.457,22.353 24.457,22.2C24.457,22.047 24.397,21.9 24.289,21.791C24.182,21.683 24.036,21.622 23.884,21.622ZM26.412,13.533L16.438,23.595C16.223,23.811 15.931,23.933 15.628,23.933C15.324,23.933 15.033,23.811 14.818,23.595L13.336,22.101C13.229,21.994 13.145,21.866 13.087,21.726C13.03,21.586 13,21.436 13,21.284C13,21.132 13.03,20.982 13.087,20.842C13.145,20.701 13.229,20.574 13.336,20.467L23.311,10.405C23.418,10.298 23.544,10.213 23.683,10.155C23.822,10.097 23.971,10.067 24.122,10.067C24.272,10.067 24.421,10.097 24.56,10.155C24.699,10.213 24.825,10.298 24.932,10.405L26.412,11.899C26.519,12.006 26.603,12.134 26.661,12.274C26.718,12.414 26.748,12.564 26.748,12.716C26.748,12.868 26.718,13.018 26.661,13.158C26.603,13.299 26.519,13.426 26.412,13.533ZM25.603,12.717L24.121,11.222L21.83,13.533L23.311,15.028L25.603,12.717Z" style="fill:rgb(37,99,235);fill-rule:nonzero;"/>
        </g>
    </g>
</svg>
